<?xml version="1.0" encoding="UTF-8"?>
<svg xmlns="http://www.w3.org/2000/svg" xmlns:xlink="http://www.w3.org/1999/xlink" width="237px" height="117px" viewBox="0 0 237 117" version="1.1">
  <title>PARFI_GROUP_RVB_NEGATIF_OK</title>
  <g id="Page-1" stroke="none" stroke-width="1" fill="none" fill-rule="evenodd">
    <g id="HOMEPAGE" transform="translate(-842.000000, -3554.000000)" fill-rule="nonzero">
      <g id="FOOTER" transform="translate(0.000000, 3469.000000)">
        <g id="PARFI_GROUP_RVB_NEGATIF_OK" transform="translate(842.000000, 85.000000)">
          <ellipse id="Oval" fill="#00B9DF" cx="226.863151" cy="10.0950266" rx="10.1368485" ry="10.0950266"></ellipse>
          <path d="M179.469572,53.1687389 L179.469572,85.0364121 L163.265061,85.0364121 L163.265061,53.1687389 L157.590674,53.1687389 L157.590674,39.9564831 L163.265061,39.9564831 L163.265061,34.4094139 C163.265061,28.3587922 164.075688,21.9085258 169.445088,16.7611012 C173.795184,12.5248668 180.480849,10.4067496 187.262826,10.4067496 C193.643503,10.4067496 201.139795,12.3250444 205.385553,16.4573712 C208.218734,19.1829485 211.059941,22.5239787 211.059941,29.9893428 L211.059941,30.7087034 L194.85543,33.9058615 L194.85543,32.3952043 C194.85543,31.9955595 194.85543,28.3587922 192.832876,26.3445826 C191.516611,25.0337478 189.28538,24.330373 187.158488,24.330373 C185.031596,24.330373 183.009042,25.1376554 181.588438,26.6483126 C179.662196,28.6625222 179.461546,31.0843694 179.461546,33.6101243 L179.461546,39.964476 L190.802296,39.964476 L190.802296,53.1767318 L179.461546,53.1767318 L179.469572,53.1687389 Z M194.943716,85.0364121 L194.943716,39.9564831 L211.059941,37.5586146 L211.059941,85.0364121 L194.943716,85.0364121 L194.943716,85.0364121 Z" id="Shape" fill="#00B9DF"></path>
          <path d="M93.2943208,39.964476 L109.498832,39.964476 L109.498832,85.044405 L93.2943208,85.044405 L93.2943208,80.1047957 C89.5461749,85.2442274 83.6711368,86.5550622 79.2167022,86.5550622 C74.3529412,86.5550622 68.381591,85.1483126 62.9158793,79.3934281 C58.5577568,74.7575488 56.4388906,69.6101243 56.4388906,62.8561279 C56.4388906,54.383659 59.77771,48.4369449 63.4295438,44.8081705 C67.2740018,40.9715808 73.253378,38.4538188 79.7303668,38.4538188 C87.0179823,38.4538188 91.3761048,42.1865009 93.2943208,44.3046181 L93.2943208,39.964476 L93.2943208,39.964476 Z M76.2791832,55.0950266 C74.0559789,57.2131439 73.0366758,60.1385435 73.0366758,62.4564831 C73.0366758,65.0781528 74.152291,67.8996448 76.1748451,69.8179396 C77.9004369,71.4325044 80.7336178,72.839254 83.4624606,72.839254 C86.1913035,72.839254 88.7275221,71.7282416 90.7500762,69.714032 C92.1706797,68.3072824 93.7839073,66.0852575 93.7839073,62.4564831 C93.7839073,60.3383659 93.1739307,57.5168739 90.6457381,55.0950266 C89.1288225,53.6802842 86.7932541,52.169627 83.3581225,52.169627 C81.3275424,52.169627 78.5986996,52.8730018 76.2711572,55.0950266 L76.2791832,55.0950266 Z" id="Shape" fill="#FFFFFF"></path>
          <path d="M118.608351,39.964476 L134.812862,39.964476 L134.812862,47.3259325 C136.434116,44.3046181 138.761658,42.2824156 141.193539,41.0754885 C143.625419,39.7646536 146.562938,39.2611012 149.596769,39.2611012 C149.99807,39.2611012 150.712384,39.3650089 152.839277,39.4609236 L152.839277,54.687389 C152.02865,54.2877442 149.805445,53.0728242 145.848623,53.0728242 C143.721731,53.0728242 140.784212,53.3765542 138.45667,55.4946714 C135.013512,58.6198934 134.812862,63.3596803 134.812862,65.7815275 L134.812862,85.044405 L118.608351,85.044405 L118.608351,39.964476 L118.608351,39.964476 Z" id="Path" fill="#FFFFFF"></path>
          <path d="M17.5849843,63.0079929 L17.5849843,85.3801066 L0,85.3801066 L0,17.8641208 L28.0508991,17.8641208 C33.9500152,17.8641208 40.0417556,18.9751332 45.2265569,23.9387211 C50.5156964,28.9982238 51.5269735,34.6651865 51.5269735,40.3401421 C51.5269735,45.7033748 50.8126587,51.9857904 45.5315453,57.1412078 C40.2424058,62.3046181 33.9419892,63.0159858 28.6608757,63.0159858 L17.5849843,63.0159858 L17.5849843,63.0079929 Z M17.5849843,48.8365897 L23.4841004,48.8365897 C25.3140303,48.8365897 28.7652139,48.6367673 30.9001321,46.7104796 C33.0350503,44.8880995 33.1393884,42.1545293 33.1393884,40.5319716 C33.1393884,38.7095915 32.9387382,36.2797513 31.1088083,34.4573712 C29.0782282,32.3312611 25.8276948,32.0275311 23.5884385,32.0275311 L17.5930103,32.0275311 L17.5930103,48.8285968 L17.5849843,48.8365897 Z" id="Shape" fill="#FFFFFF"></path>
          <path d="M139.949507,108.007993 L147.180941,108.007993 L147.180941,108.423623 C147.180941,110.341918 146.611094,112.412078 145.519557,113.890764 C144.997867,114.586146 143.047546,117 139.074672,117 C133.930001,117 130.077517,113.091474 130.077517,108.063943 C130.077517,103.036412 133.954079,99.1278863 139.122828,99.1278863 C140.784212,99.1278863 142.734532,99.5435169 144.42802,100.838366 C145.206543,101.437833 145.936909,102.213144 146.434522,102.884547 L145.005893,104.179396 C144.50828,103.484014 143.938433,102.860568 143.368587,102.388988 C142.533882,101.717584 141.233669,100.942274 139.154932,100.942274 C134.965356,100.942274 132.059941,104.075488 132.059941,108.087922 C132.059941,112.80373 135.832165,115.185613 139.106776,115.185613 C141.418267,115.185613 143.424769,114.01865 144.411968,112.284192 C144.724982,111.740675 145.062075,110.909414 145.118257,109.82238 L139.973585,109.82238 L139.973585,108.007993 L139.949507,108.007993 Z" id="Path" fill="#FFFFFF"></path>
          <path d="M153.497409,99.4156306 C154.669207,99.4156306 156.41085,99.4955595 157.711064,100.374778 C158.722341,101.046181 159.613228,102.365009 159.613228,104.203375 C159.613228,106.84103 157.871584,108.783304 155.247079,108.96714 L160.760947,116.680284 L158.417352,116.680284 L153.136239,109.119005 L152.638626,109.119005 L152.638626,116.680284 L150.712384,116.680284 L150.712384,99.4076377 L153.497409,99.4076377 L153.497409,99.4156306 Z M152.638626,107.416519 L153.85858,107.416519 C156.25033,107.416519 157.67896,106.273535 157.67896,104.259325 C157.67896,103.300178 157.390023,102.34103 156.298486,101.725577 C155.519963,101.285968 154.637103,101.230018 153.802398,101.230018 L152.6306,101.230018 L152.6306,107.416519 L152.638626,107.416519 Z" id="Shape" fill="#FFFFFF"></path>
          <path d="M162.831657,108.063943 C162.831657,102.908526 166.860713,99.1278863 171.85289,99.1278863 C176.845068,99.1278863 180.874124,102.908526 180.874124,108.063943 C180.874124,113.219361 176.869146,117 171.85289,117 C166.836635,117 162.831657,113.195382 162.831657,108.063943 Z M164.806055,108.063943 C164.806055,112.028419 167.95225,115.185613 171.85289,115.185613 C175.75353,115.185613 178.899726,112.028419 178.899726,108.063943 C178.899726,104.099467 175.75353,100.942274 171.85289,100.942274 C167.95225,100.942274 164.806055,104.099467 164.806055,108.063943 Z" id="Shape" fill="#FFFFFF"></path>
          <path d="M186.339835,110.006217 C186.339835,111.452931 186.339835,113.035524 187.720309,114.202487 C188.418572,114.801954 189.614447,115.185613 190.577568,115.185613 C191.540689,115.185613 192.736564,114.793961 193.434827,114.202487 C194.8153,113.035524 194.8153,111.460924 194.8153,110.006217 L194.8153,99.4156306 L196.741542,99.4156306 L196.741542,110.525755 C196.741542,111.972469 196.589048,113.371226 195.650005,114.666075 C194.606624,116.08881 192.792746,117 190.577568,117 C188.36239,117 186.548512,116.096803 185.505131,114.666075 C184.566088,113.371226 184.413593,111.972469 184.413593,110.525755 L184.413593,99.4156306 L186.339835,99.4156306 L186.339835,110.006217 Z" id="Path" fill="#FFFFFF"></path>
          <path d="M204.358224,99.4156306 C206.099868,99.4156306 207.552575,99.6234458 208.724373,100.630551 C210.000508,101.717584 210.313522,103.244227 210.313522,104.331261 C210.313522,106.761101 208.780555,109.174956 204.831759,109.174956 L203.138271,109.174956 L203.138271,116.680284 L201.212029,116.680284 L201.212029,99.4076377 L204.358224,99.4076377 L204.358224,99.4156306 Z M203.138271,107.360568 L204.727421,107.360568 C207.014833,107.360568 208.395306,106.217584 208.395306,104.227353 C208.395306,101.48579 205.818958,101.222025 204.574926,101.222025 L203.146297,101.222025 L203.146297,107.360568 L203.138271,107.360568 Z" id="Shape" fill="#FFFFFF"></path>
        </g>
      </g>
    </g>
  </g>
</svg>
