<?xml version="1.0" encoding="UTF-8"?>
<svg xmlns="http://www.w3.org/2000/svg" xmlns:xlink="http://www.w3.org/1999/xlink" width="156px" height="77px" viewBox="0 0 156 77" version="1.1">
  <title>PARFI_GROUP_RVB_NEGATIF_OK</title>
  <g id="Page-1" stroke="none" stroke-width="1" fill="none" fill-rule="evenodd">
    <g id="HOMEPAGE" transform="translate(-245.000000, -60.000000)" fill-rule="nonzero">
      <g id="PARFI_GROUP_RVB_NEGATIF_OK" transform="translate(245.000000, 60.000000)">
        <ellipse id="Oval" fill="#00B9DF" cx="149.327644" cy="6.64373548" rx="6.67235599" ry="6.64373548"></ellipse>
        <path d="M118.13187,34.9913923 L118.13187,55.9641344 L107.46561,55.9641344 L107.46561,34.9913923 L103.73057,34.9913923 L103.73057,26.296147 L107.46561,26.296147 L107.46561,22.6455117 C107.46561,18.6634786 107.999187,14.4184315 111.533476,11.0308102 C114.39683,8.24286105 118.797521,6.84888646 123.261607,6.84888646 C127.461546,6.84888646 132.395814,8.11135401 135.190491,10.8309195 C137.055369,12.6246755 138.925531,14.8234732 138.925531,19.736576 L138.925531,20.2100014 L128.259271,22.3141139 L128.259271,21.3199208 C128.259271,21.0569067 128.259271,18.6634786 126.927969,17.3378877 C126.061567,16.4752015 124.592909,16.0122968 123.192929,16.0122968 C121.792949,16.0122968 120.461648,16.5435852 119.526567,17.5377784 C118.258661,18.8633693 118.126587,20.4572346 118.126587,22.1194835 L118.126587,26.3014073 L125.591385,26.3014073 L125.591385,34.9966525 L118.126587,34.9966525 L118.13187,34.9913923 Z M128.317383,55.9641344 L128.317383,26.296147 L138.925531,24.7180626 L138.925531,55.9641344 L128.317383,55.9641344 L128.317383,55.9641344 Z" id="Shape" fill="#00B9DF"></path>
        <path d="M61.40892,26.3014073 L72.0751803,26.3014073 L72.0751803,55.9693947 L61.40892,55.9693947 L61.40892,52.7185408 C58.941786,56.1009018 55.0746724,56.9635879 52.1426394,56.9635879 C48.9411765,56.9635879 45.0106675,56.0377784 41.4129838,52.2503757 C38.5443462,49.1994125 37.1496495,45.8117912 37.1496495,41.3668534 C37.1496495,35.790955 39.3473534,31.8773056 41.7510921,29.4891379 C44.2816215,26.9642028 48.2174134,25.3072141 52.4807477,25.3072141 C57.2776593,25.3072141 60.1462969,27.7637655 61.40892,29.1577401 L61.40892,26.3014073 L61.40892,26.3014073 Z M50.2090826,36.2591201 C48.7457076,37.6530947 48.074774,39.5783577 48.074774,41.1038393 C48.074774,42.8292116 48.8091029,44.686091 50.1404043,45.9485585 C51.2762369,47.0111354 53.1411155,47.9369449 54.9373159,47.9369449 C56.7335162,47.9369449 58.4029259,47.2057658 59.7342274,45.8801749 C60.6693081,44.9543654 61.7311795,43.4920071 61.7311795,41.1038393 C61.7311795,39.7098647 61.3296759,37.8529854 59.6655491,36.2591201 C58.667073,35.3280503 57.1297369,34.3338571 54.8686376,34.3338571 C53.5320532,34.3338571 51.7358529,34.7967619 50.2037997,36.2591201 L50.2090826,36.2591201 Z" id="Shape" fill="#23346B"></path>
        <path d="M78.0713197,26.3014073 L88.73758,26.3014073 L88.73758,31.1461265 C89.8047343,29.1577401 91.3367876,27.8268889 92.937519,27.0325864 C94.5382505,26.1699003 96.4718074,25.8385025 98.4687595,25.8385025 C98.7329066,25.8385025 99.2030885,25.9068862 100.603068,25.9700096 L100.603068,35.9908457 C100.069491,35.7278317 98.606116,34.9282689 96.0016255,34.9282689 C94.6016458,34.9282689 92.668089,35.1281596 91.1360358,36.5221342 C88.8696536,38.5789042 88.73758,41.6982511 88.73758,43.2921164 L88.73758,55.9693947 L78.0713197,55.9693947 L78.0713197,26.3014073 L78.0713197,26.3014073 Z" id="Path" fill="#23346B"></path>
        <path d="M11.5749263,41.4667987 L11.5749263,56.1903265 L0,56.1903265 L0,11.7567291 L18.463883,11.7567291 C22.3468455,11.7567291 26.3565986,12.4879082 29.7693793,15.754543 C33.2508382,19.0843011 33.9164889,22.8138407 33.9164889,26.5486405 C33.9164889,30.0782894 33.446307,34.2128706 29.9701311,37.6057522 C26.4886722,41.003894 22.3415625,41.472059 18.8653866,41.472059 L11.5749263,41.472059 L11.5749263,41.4667987 Z M11.5749263,32.1403197 L15.4578889,32.1403197 C16.6623997,32.1403197 18.9340648,32.0088127 20.3393274,30.7410848 C21.7445901,29.5417407 21.8132683,27.7427244 21.8132683,26.6748873 C21.8132683,25.4755431 21.6811948,23.8764175 20.4766839,22.6770734 C19.1400996,21.2778385 17.000508,21.0779478 15.5265671,21.0779478 L11.5802093,21.0779478 L11.5802093,32.1350594 L11.5749263,32.1403197 Z" id="Shape" fill="#23346B"></path>
        <path d="M92.118663,71.0821834 L96.8785939,71.0821834 L96.8785939,71.355718 C96.8785939,72.6181855 96.503505,73.9805984 95.7850249,74.9537505 C95.4416336,75.411395 94.1578787,77 91.5428223,77 C88.1564564,77 85.6206441,74.4277224 85.6206441,71.1190053 C85.6206441,67.8102883 88.1723052,65.2380107 91.57452,65.2380107 C92.668089,65.2380107 93.951844,65.5115453 95.0665448,66.3637109 C95.5789901,66.758232 96.0597379,67.2684793 96.3872803,67.7103429 L95.4469166,68.5625085 C95.1193742,68.1048641 94.7442853,67.6945621 94.3691964,67.3842055 C93.8197704,66.9423418 92.9639338,66.4320945 91.5956517,66.4320945 C88.8379559,66.4320945 86.9255308,68.4941249 86.9255308,71.1347862 C86.9255308,74.2383522 89.4085137,75.8059161 91.5639541,75.8059161 C93.0854414,75.8059161 94.406177,75.037915 95.0559789,73.8964339 C95.2620136,73.5387348 95.4838972,72.9916655 95.5208778,72.2762672 L92.1345118,72.2762672 L92.1345118,71.0821834 L92.118663,71.0821834 Z" id="Path" fill="#23346B"></path>
        <path d="M101.036269,65.4273808 C101.807579,65.4273808 102.953977,65.4799836 103.809814,66.0586146 C104.475465,66.5004782 105.061871,67.3684246 105.061871,68.5782894 C105.061871,70.3141823 103.915473,71.5924307 102.187951,71.7134171 L105.817332,76.7895887 L104.274713,76.7895887 L100.798537,71.8133625 L100.470995,71.8133625 L100.470995,76.7895887 L99.2030885,76.7895887 L99.2030885,65.4221205 L101.036269,65.4221205 L101.036269,65.4273808 Z M100.470995,70.6929225 L101.274002,70.6929225 C102.848319,70.6929225 103.788682,69.9407023 103.788682,68.6151114 C103.788682,67.9838776 103.598496,67.3526438 102.880016,66.9476021 C102.367571,66.6582867 101.786447,66.6214647 101.237021,66.6214647 L100.465712,66.6214647 L100.465712,70.6929225 L100.470995,70.6929225 Z" id="Shape" fill="#23346B"></path>
        <path d="M107.180331,71.1190053 C107.180331,67.7261238 109.832368,65.2380107 113.118358,65.2380107 C116.404348,65.2380107 119.056385,67.7261238 119.056385,71.1190053 C119.056385,74.5118869 116.420197,77 113.118358,77 C109.816519,77 107.180331,74.496106 107.180331,71.1190053 Z M108.479935,71.1190053 C108.479935,73.7281049 110.550848,75.8059161 113.118358,75.8059161 C115.685868,75.8059161 117.756781,73.7281049 117.756781,71.1190053 C117.756781,68.5099057 115.685868,66.4320945 113.118358,66.4320945 C110.550848,66.4320945 108.479935,68.5099057 108.479935,71.1190053 Z" id="Shape" fill="#23346B"></path>
        <path d="M122.654069,72.3972537 C122.654069,73.3493647 122.654069,74.3909004 123.562735,75.1589015 C124.022351,75.5534226 124.809509,75.8059161 125.443462,75.8059161 C126.077415,75.8059161 126.864574,75.5481623 127.32419,75.1589015 C128.232856,74.3909004 128.232856,73.3546249 128.232856,72.3972537 L128.232856,65.4273808 L129.500762,65.4273808 L129.500762,72.739172 C129.500762,73.691283 129.400386,74.6118322 128.782282,75.4639978 C128.095499,76.4003279 126.901554,77 125.443462,77 C123.98537,77 122.791425,76.4055882 122.104643,75.4639978 C121.486539,74.6118322 121.386163,73.691283 121.386163,72.739172 L121.386163,65.4273808 L122.654069,65.4273808 L122.654069,72.3972537 Z" id="Path" fill="#23346B"></path>
        <path d="M134.514274,65.4273808 C135.660673,65.4273808 136.616885,65.5641481 137.388195,66.2269436 C138.228182,66.9423418 138.434217,67.9470556 138.434217,68.6624539 C138.434217,70.2615795 137.425175,71.8501845 134.825968,71.8501845 L133.711267,71.8501845 L133.711267,76.7895887 L132.443361,76.7895887 L132.443361,65.4221205 L134.514274,65.4221205 L134.514274,65.4273808 Z M133.711267,70.6561006 L134.757289,70.6561006 C136.262928,70.6561006 137.171594,69.9038803 137.171594,68.5940702 C137.171594,66.7897937 135.47577,66.6162044 134.656914,66.6162044 L133.71655,66.6162044 L133.71655,70.6561006 L133.711267,70.6561006 Z" id="Shape" fill="#23346B"></path>
      </g>
    </g>
  </g>
</svg>
